<?xml version="1.0" encoding="utf-8"?>
<!-- Generator: Adobe Illustrator 17.0.0, SVG Export Plug-In . SVG Version: 6.00 Build 0)  -->
<!DOCTYPE svg PUBLIC "-//W3C//DTD SVG 1.1//EN" "http://www.w3.org/Graphics/SVG/1.1/DTD/svg11.dtd">
<svg version="1.1"
	 id="svg9089" inkscape:version="0.46" sodipodi:version="0.32" sodipodi:docname="tv_cartoon.svg" inkscape:output_extension="org.inkscape.output.svg.inkscape" xmlns:svg="http://www.w3.org/2000/svg" xmlns:inkscape="http://www.inkscape.org/namespaces/inkscape" xmlns:rdf="http://www.w3.org/1999/02/22-rdf-syntax-ns#" xmlns:sodipodi="http://sodipodi.sourceforge.net/DTD/sodipodi-0.dtd" xmlns:dc="http://purl.org/dc/elements/1.1/" xmlns:cc="http://creativecommons.org/ns#"
	 xmlns="http://www.w3.org/2000/svg" xmlns:xlink="http://www.w3.org/1999/xlink" x="0px" y="0px" width="90px" height="100px"
	 viewBox="79.799 97.068 90 100" enable-background="new 79.799 97.068 90 100" xml:space="preserve">
<defs>


		<inkscape:perspective  inkscape:persp3d-origin="372.04724 : 350.78739 : 1" inkscape:vp_y="0 : 1000 : 0" inkscape:vp_z="744.09448 : 526.18109 : 1" id="perspective9095" inkscape:vp_x="0 : 526.18109 : 1" sodipodi:type="inkscape:persp3d">
		</inkscape:perspective>
</defs>
<sodipodi:namedview  inkscape:window-y="143" inkscape:window-x="221" inkscape:window-height="662" inkscape:window-width="640" inkscape:current-layer="layer1" inkscape:document-units="mm" inkscape:pageopacity="0.0" inkscape:pageshadow="2" id="base" pagecolor="#ffffff" bordercolor="#666666" borderopacity="1.0" inkscape:zoom="0.35" inkscape:cx="350" inkscape:cy="520" showgrid="false">
	</sodipodi:namedview>
<g id="layer1" transform="translate(-220.15509,-385.29396)" inkscape:groupmode="layer" inkscape:label="Layer 1">
	<path id="path9087" sodipodi:nodetypes="ccccc" fill="#8F5902" d="M376.413,574.041c1.676,2.011,3.852,1.957,3.185,6.537
		c-7.093,2.783-21.791-0.838-21.791-0.838l0.168-1.676L376.413,574.041z"/>
	<path id="path9085" sodipodi:nodetypes="ccccc" fill="#8F5902" d="M311.5,570.521c-1.676,2.011-3.852,1.957-3.185,6.537
		c7.093,2.783,21.791-0.838,21.791-0.838l-0.168-1.676L311.5,570.521z"/>

		<path id="path9062" sodipodi:ry="31" sodipodi:rx="51" sodipodi:cx="381" sodipodi:cy="350.36218" sodipodi:type="arc" fill="#8F5902" d="
		M362.121,515.206c0,5.74-7.655,10.392-17.097,10.392s-17.097-4.653-17.097-10.392c0-5.74,7.655-10.392,17.097-10.392
		S362.121,509.466,362.121,515.206z"/>
	<path id="path9046" sodipodi:nodetypes="ccccc" fill="#C17D11" d="M310.35,519.708c10.057-5.986,64.414-20.354,73.992,5.029
		c10.057,30.411-0.851,43.71-3.831,47.412c-8.62,9.339-51.244,8.62-74.232-2.395C295.743,550.837,304.965,522.913,310.35,519.708z"
		/>
	<path id="path9048" sodipodi:nodetypes="ccccc" fill="#555753" d="M313.12,525.277c7.233-4.666,46.324-15.866,53.212,3.92
		c7.233,23.705-0.612,34.071-2.755,36.958c-6.2,7.28-36.853,6.72-53.385-1.867C302.616,549.542,309.247,527.776,313.12,525.277z"/>
	<path id="path9055" fill="#888A85" d="M343.946,520.031c-5.986,0.038-12.485,1.17-17.904,2.619s-9.969,3.387-11.231,4.201
		c0.4-0.258-0.235,0.242-0.775,1.236c-0.54,0.994-1.163,2.447-1.729,4.191c-0.89,2.744-1.635,6.209-2.001,9.9
		c0.493-0.008,1.001-0.023,1.718-0.126c3.706-0.529,10.543-2.695,21.571-9.586c11.775-7.358,22.299-4.767,28.82-0.115
		c0.547,0.39,1.038,0.805,1.54,1.215c-0.357-1.516-0.781-3.093-1.289-4.756c-1.174-3.373-3.272-5.257-6.506-6.705
		C352.928,520.657,348.602,520.001,343.946,520.031z"/>
	<path id="path9057" sodipodi:nodetypes="ccsc" fill="#2E3436" d="M380.177,551.75c-0.402,4.346-6.378,3.583-6.993-0.532
		c0-1.836,1.378-3.35,3.075-3.326C379.331,547.936,380.177,549.914,380.177,551.75z"/>
	<path id="path9060" sodipodi:nodetypes="ccsc" fill="#2E3436" d="M379.841,538.005c-0.402,4.346-6.378,3.583-6.993-0.532
		c0-1.836,1.378-3.35,3.075-3.326C378.996,534.191,379.841,536.169,379.841,538.005z"/>
	<path id="path9064" sodipodi:nodetypes="ccccc" fill="#8F5902" d="M348.376,506.155l20.114-20.785l1.006,3.352l-19.29,18.088
		L348.376,506.155z"/>

		<path id="path9066" sodipodi:ry="11" sodipodi:rx="13.5" sodipodi:cx="491.5" sodipodi:cy="342.36218" sodipodi:type="arc" fill="#8F5902" d="
		M374.19,486.711c0,2.037-2.026,3.688-4.526,3.688c-2.499,0-4.526-1.651-4.526-3.688s2.026-3.688,4.526-3.688
		C372.163,483.023,374.19,484.674,374.19,486.711z"/>
	<path id="path9068" sodipodi:nodetypes="ccccc" fill="#8F5902" d="M343.683,509.507l-18.438-17.768l-0.67,2.347l15.714,13.925
		L343.683,509.507z"/>

		<path id="path9070" sodipodi:ry="11" sodipodi:rx="13.5" sodipodi:cx="491.5" sodipodi:cy="342.36218" sodipodi:type="arc" fill="#8F5902" d="
		M322.06,493.391c0,1.773,1.764,3.21,3.939,3.21c2.175,0,3.939-1.437,3.939-3.21s-1.764-3.21-3.939-3.21
		C323.823,490.181,322.06,491.618,322.06,493.391z"/>
	<path id="path9082" sodipodi:nodetypes="csssscsscc" fill="#8F5902" d="M378.118,568.398c-1.079,0.072-4.078,1.029-13.357,4.641
		c-1.25,0.487-2.932,0.661-5.133,0.754c-2.202,0.093-4.887,0.058-7.878-0.063c-5.983-0.241-13.209-0.831-20.198-1.519
		c-11.467-1.129-20.515-2.287-24.032-2.745c11.18,5.067,26.873,7.852,40.889,8.224c7.232,0.192,14.012-0.249,19.454-1.299
		c5.41-1.044,9.468-2.758,11.283-4.693C381.456,569.367,381.238,568.522,378.118,568.398z"/>

		<path id="path9074" sodipodi:ry="8.1317282" sodipodi:rx="3.1819806" sodipodi:cx="506.28845" sodipodi:cy="518.49658" sodipodi:type="arc" fill="#FFFFFF" d="
		M377.436,537.456c-0.336,1.468-1.074,2.553-1.648,2.423c-0.575-0.129-0.769-1.424-0.433-2.892c0.001-0.003,0.001-0.006,0.002-0.009
		c0.336-1.468,1.074-2.553,1.648-2.423c0.575,0.129,0.769,1.424,0.433,2.892C377.437,537.45,377.436,537.453,377.436,537.456z"/>

		<path id="path9076" sodipodi:ry="8.1317282" sodipodi:rx="3.1819806" sodipodi:cx="506.28845" sodipodi:cy="518.49658" sodipodi:type="arc" fill="#FFFFFF" d="
		M378.028,551.324c-0.336,1.468-1.074,2.553-1.648,2.423c-0.575-0.129-0.769-1.424-0.433-2.892c0.001-0.003,0.001-0.006,0.002-0.009
		c0.336-1.468,1.074-2.553,1.648-2.423s0.769,1.424,0.433,2.892C378.03,551.318,378.029,551.321,378.028,551.324z"/>
</g>
</svg>
