<?xml version="1.0" encoding="utf-8"?>
<!-- Generator: Adobe Illustrator 17.0.0, SVG Export Plug-In . SVG Version: 6.00 Build 0)  -->
<!DOCTYPE svg PUBLIC "-//W3C//DTD SVG 1.1//EN" "http://www.w3.org/Graphics/SVG/1.1/DTD/svg11.dtd">
<svg version="1.1"
	 id="svg9089" inkscape:version="0.46" sodipodi:version="0.32" sodipodi:docname="tv_cartoon.svg" inkscape:output_extension="org.inkscape.output.svg.inkscape" xmlns:svg="http://www.w3.org/2000/svg" xmlns:inkscape="http://www.inkscape.org/namespaces/inkscape" xmlns:rdf="http://www.w3.org/1999/02/22-rdf-syntax-ns#" xmlns:sodipodi="http://sodipodi.sourceforge.net/DTD/sodipodi-0.dtd" xmlns:dc="http://purl.org/dc/elements/1.1/" xmlns:cc="http://creativecommons.org/ns#"
	 xmlns="http://www.w3.org/2000/svg" xmlns:xlink="http://www.w3.org/1999/xlink" x="0px" y="0px" width="90px" height="100px"
	 viewBox="0 0 90 100" enable-background="new 0 0 90 100" xml:space="preserve">
<path id="path9064" sodipodi:nodetypes="ccccc" fill="#19D819" d="M48.392,23.829L68.506,3.044l1.006,3.352l-19.29,18.088
	L48.392,23.829z"/>
<path id="path9066" sodipodi:ry="11" sodipodi:rx="13.5" sodipodi:cx="491.5" sodipodi:cy="342.36218" sodipodi:type="arc" fill="#19D819" d="
	M74.206,4.385c0,2.037-2.026,3.688-4.526,3.688c-2.499,0-4.526-1.651-4.526-3.688s2.026-3.688,4.526-3.688
	C72.179,0.697,74.206,2.348,74.206,4.385z"/>
<path id="path9068" sodipodi:nodetypes="ccccc" fill="#19D819" d="M43.699,27.181L25.261,9.413l-0.67,2.347l15.714,13.925
	L43.699,27.181z"/>
<path id="path9070" sodipodi:ry="11" sodipodi:rx="13.5" sodipodi:cx="491.5" sodipodi:cy="342.36218" sodipodi:type="arc" fill="#19D819" d="
	M22.076,11.065c0,1.773,1.764,3.21,3.939,3.21s3.939-1.437,3.939-3.21s-1.764-3.21-3.939-3.21
	C23.839,7.855,22.076,9.292,22.076,11.065z"/>
<defs>


		<inkscape:perspective  inkscape:persp3d-origin="372.04724 : 350.78739 : 1" inkscape:vp_y="0 : 1000 : 0" inkscape:vp_z="744.09448 : 526.18109 : 1" id="perspective9095" inkscape:vp_x="0 : 526.18109 : 1" sodipodi:type="inkscape:persp3d">
		</inkscape:perspective>
</defs>
<sodipodi:namedview  inkscape:window-y="143" inkscape:window-x="221" inkscape:window-height="662" inkscape:window-width="640" inkscape:current-layer="layer1" inkscape:document-units="mm" inkscape:pageopacity="0.0" inkscape:pageshadow="2" id="base" pagecolor="#ffffff" bordercolor="#666666" borderopacity="1.0" inkscape:zoom="0.35" inkscape:cx="350" inkscape:cy="520" showgrid="false">
	</sodipodi:namedview>
<path id="path9087" sodipodi:nodetypes="ccccc" fill="#888A85" d="M76.429,91.715c1.676,2.011,3.852,1.957,3.185,6.537
	c-7.093,2.783-21.791-0.838-21.791-0.838l0.168-1.676L76.429,91.715z"/>
<path id="path9085" sodipodi:nodetypes="ccccc" fill="#888A85" d="M11.516,88.195c-1.676,2.011-3.852,1.957-3.185,6.537
	c7.093,2.783,21.791-0.838,21.791-0.838l-0.168-1.676L11.516,88.195z"/>
<path id="path9062" sodipodi:ry="31" sodipodi:rx="51" sodipodi:cx="381" sodipodi:cy="350.36218" sodipodi:type="arc" fill="#888A85" d="
	M62.137,32.88c0,5.74-7.655,10.392-17.097,10.392S27.943,38.619,27.943,32.88c0-5.74,7.655-10.392,17.097-10.392
	S62.137,27.14,62.137,32.88z"/>
<path id="path9046" sodipodi:nodetypes="ccccc" fill="#19D819" d="M10.366,37.382c10.057-5.986,64.414-20.354,73.992,5.029
	c10.057,30.411-0.851,43.71-3.831,47.412c-8.62,9.339-51.244,8.62-74.232-2.395C-4.241,68.511,4.981,40.587,10.366,37.382z"/>
<path id="path9048" sodipodi:nodetypes="ccccc" fill="#555753" d="M13.136,42.951c7.233-4.666,46.324-15.866,53.212,3.92
	c7.233,23.705-0.612,34.071-2.755,36.958c-6.2,7.28-36.853,6.72-53.385-1.867C2.632,67.216,9.263,45.45,13.136,42.951z"/>
<path id="path9055" fill="#888A85" d="M43.962,37.705c-5.986,0.038-12.485,1.17-17.904,2.619s-9.969,3.387-11.231,4.201
	c0.4-0.258-0.235,0.242-0.775,1.236s-1.163,2.447-1.729,4.191c-0.89,2.744-1.635,6.209-2.001,9.9
	c0.493-0.008,1.001-0.023,1.718-0.126c3.706-0.529,10.543-2.695,21.571-9.586c11.775-7.358,22.299-4.767,28.82-0.115
	c0.547,0.39,1.038,0.805,1.54,1.215c-0.357-1.516-0.781-3.093-1.289-4.756c-1.174-3.373-3.272-5.257-6.506-6.705
	C52.944,38.331,48.618,37.675,43.962,37.705z"/>
<path id="path9057" sodipodi:nodetypes="ccsc" fill="#2E3436" d="M80.193,69.424c-0.402,4.346-6.378,3.583-6.993-0.532
	c0-1.836,1.378-3.35,3.075-3.326C79.347,65.61,80.193,67.588,80.193,69.424z"/>
<path id="path9060" sodipodi:nodetypes="ccsc" fill="#2E3436" d="M79.857,55.679c-0.402,4.346-6.378,3.583-6.993-0.532
	c0-1.836,1.378-3.35,3.075-3.326C79.012,51.865,79.857,53.843,79.857,55.679z"/>
<path id="path9082" sodipodi:nodetypes="csssscsscc" fill="#888A85" d="M78.134,86.072c-1.079,0.072-4.078,1.029-13.357,4.641
	c-1.25,0.487-2.932,0.661-5.133,0.754c-2.202,0.093-4.887,0.058-7.878-0.063c-5.983-0.241-13.209-0.831-20.198-1.519
	c-11.467-1.129-20.515-2.287-24.032-2.745c11.18,5.067,26.873,7.852,40.889,8.224c7.232,0.192,14.012-0.249,19.454-1.299
	c5.41-1.044,9.468-2.758,11.283-4.693C81.472,87.041,81.254,86.196,78.134,86.072z"/>
<path id="path9074" sodipodi:ry="8.1317282" sodipodi:rx="3.1819806" sodipodi:cx="506.28845" sodipodi:cy="518.49658" sodipodi:type="arc" fill="#FFFFFF" d="
	M77.452,55.13c-0.336,1.468-1.074,2.553-1.648,2.423c-0.575-0.129-0.769-1.424-0.433-2.892c0.001-0.003,0.001-0.006,0.002-0.009
	c0.336-1.468,1.074-2.553,1.648-2.423c0.575,0.129,0.769,1.424,0.433,2.892C77.453,55.124,77.452,55.127,77.452,55.13z"/>
<path id="path9076" sodipodi:ry="8.1317282" sodipodi:rx="3.1819806" sodipodi:cx="506.28845" sodipodi:cy="518.49658" sodipodi:type="arc" fill="#FFFFFF" d="
	M78.044,68.998c-0.336,1.468-1.074,2.553-1.648,2.423c-0.575-0.129-0.769-1.424-0.433-2.892c0.001-0.003,0.001-0.006,0.002-0.009
	c0.336-1.468,1.074-2.553,1.648-2.423s0.769,1.424,0.433,2.892C78.046,68.992,78.045,68.995,78.044,68.998z"/>
</svg>
